<svg width="506" height="246" viewBox="0 0 506 246" fill="none" xmlns="http://www.w3.org/2000/svg">
<path fill-rule="evenodd" clip-rule="evenodd" d="M22.6017 0.537592C20.155 0.905078 16.7022 1.68446 14.9273 2.26878C13.1534 2.85311 9.76424 5.26528 7.39516 7.62869C4.20848 10.8089 2.68669 13.2228 1.54448 16.9099C0.105583 21.5514 0 28.5963 0 119.86C0 198.626 0.229489 218.852 1.17101 223.052C1.81498 225.926 3.28092 229.905 4.43012 231.893C5.57844 233.882 8.19271 236.74 10.2398 238.244C12.2869 239.748 16.0887 241.596 18.6882 242.351C21.6602 243.214 24.9629 243.542 27.5851 243.232C29.8791 242.961 33.0527 242.073 34.6382 241.259C36.2237 240.445 39.817 238.022 42.6223 235.873C45.4286 233.723 55.6378 224.271 65.3096 214.869C74.9822 205.466 84.325 196.892 86.0719 195.815C87.8188 194.738 91.4714 193.446 94.1887 192.945C97.7078 192.296 100.472 192.311 103.801 193.001C106.371 193.534 110.18 195.097 112.264 196.476C114.35 197.854 121.953 204.398 129.16 211.017C136.368 217.637 145.398 225.804 149.229 229.167C153.059 232.531 158.815 237.15 162.019 239.431C165.224 241.712 169.682 244.204 171.926 244.967C174.63 245.886 177.556 246.194 180.596 245.882C183.12 245.621 187.163 244.408 189.58 243.187C191.996 241.964 195.203 239.481 196.705 237.668C198.207 235.856 200.002 232.48 200.694 230.167C201.385 227.853 202.381 220.995 202.904 214.928C203.543 207.543 203.763 173.659 203.57 112.458C203.304 27.7803 203.169 20.6849 201.74 16.4614C200.693 13.3657 198.801 10.5076 195.854 7.56599C192.901 4.61826 190.048 2.7399 186.94 1.69666C182.726 0.282443 176.323 0.150948 104.71 0.015971C61.9972 -0.0650153 25.0485 0.170105 22.6017 0.537592ZM63.2197 45.6313C64.6516 46.7878 68.8619 58.7798 80.4018 94.5671C88.8083 120.639 96.4487 143.462 97.3806 145.284C98.6083 147.686 99.6319 148.597 101.102 148.597C102.218 148.597 103.817 147.84 104.655 146.916C105.494 145.992 113.533 122.776 122.52 95.3247L137.775 48.7268C138.442 46.688 140.178 45.1818 142.29 44.8075C144.177 44.4731 149.55 44.1762 154.23 44.1492C158.909 44.1213 162.737 44.2868 162.737 44.5158C162.737 44.7448 156.496 64.4367 148.867 88.2745C141.238 112.112 133.389 136.71 131.424 142.937C129.459 149.163 126.664 156.31 125.213 158.818C123.763 161.326 120.593 164.942 118.17 166.854C115.747 168.765 112.119 170.773 110.11 171.315C108.099 171.858 103.511 172.126 99.9111 171.913C95.166 171.63 92.1669 170.909 89.0038 169.29C86.6042 168.063 83.1923 165.606 81.4227 163.832C78.9568 161.361 77.2919 158.134 74.3016 150.03C72.1559 144.213 65.4893 124.171 59.4886 105.492C53.4869 86.8124 46.7706 65.7211 44.563 58.6222C42.3562 51.5233 40.7751 45.3518 41.0499 44.9068C41.3257 44.4627 46.0001 44.0987 51.4372 44.0987C59.5732 44.0987 61.6595 44.3704 63.2197 45.6313Z" fill="#1EC0AA"/>
<path fill-rule="evenodd" clip-rule="evenodd" d="M309.847 27.6915L307.341 25.3002C305.962 23.9846 303.68 22.4721 302.269 21.9388C300.858 21.4055 297.987 20.9779 295.889 20.9888C293.791 20.9998 290.417 21.7619 288.392 22.6827C286.366 23.6026 283.601 25.6722 282.247 27.2813C280.894 28.8904 279.115 32.518 278.294 35.3433C277.238 38.9755 276.949 42.3615 277.305 46.9062C277.582 50.4418 278.419 54.7695 279.163 56.5245C279.908 58.2795 281.444 60.8951 282.579 62.3374C283.713 63.7788 286.313 65.7189 288.357 66.6479C290.403 67.576 293.791 68.3455 295.889 68.3564C297.987 68.3673 300.858 67.9407 302.269 67.4091C303.68 66.8767 306.168 65.1555 307.796 63.5828L310.758 60.7256V64.0952C310.758 67.4183 310.809 67.4648 314.404 67.4648H318.05V1.40062e-10H309.847V27.6915ZM330.495 5.31422C329.665 6.23137 328.986 7.69372 328.986 8.56438C328.986 9.43595 329.411 10.9421 329.93 11.9121C330.606 13.1757 331.844 13.6753 334.304 13.6753C336.192 13.6753 338.228 13.183 338.829 12.5813C339.431 11.9796 339.923 10.3677 339.923 8.99925C339.923 7.63172 339.279 5.86761 338.491 5.079C337.703 4.29131 335.921 3.64674 334.531 3.64674C333.14 3.64674 331.324 4.39706 330.495 5.31422ZM358.151 8.58079C354.984 9.72039 354.959 9.77145 354.691 15.805L354.422 21.8805H350.305C346.208 21.8805 346.189 21.896 346.473 24.8434C346.741 27.625 346.996 27.8237 350.632 28.0863L354.505 28.3671V41.5866C354.505 48.8573 354.954 56.5883 355.502 58.7682C356.057 60.9708 357.667 63.8481 359.128 65.2485C361.164 67.2004 362.88 67.8604 366.747 68.1814C369.491 68.4093 372.781 68.3327 374.058 68.0127C375.96 67.535 376.379 66.8858 376.379 64.4097V61.3884L371.592 61.7859C367.522 62.1232 366.534 61.8825 364.984 60.1722C363.348 58.3661 363.134 56.644 362.875 43.2121L362.585 28.2623H375.467V21.8805H362.708V14.587C362.708 10.5756 362.4 7.32448 362.024 7.36278C361.649 7.40107 359.905 7.94899 358.151 8.58079ZM241.7 22.8979C239.559 23.9591 236.626 26.2584 235.184 28.0088C233.741 29.7593 232.044 33.0377 231.413 35.295C230.781 37.5533 230.24 41.7142 230.211 44.5432C230.181 47.3721 230.729 51.7044 231.429 54.1696C232.248 57.0542 234.024 60.0263 236.414 62.507C238.697 64.8783 241.529 66.7482 243.771 67.3645C245.776 67.9151 249.215 68.3682 251.412 68.371C253.61 68.3737 256.97 67.9078 258.88 67.3362C260.79 66.7637 263.811 65.0926 265.594 63.6229C267.376 62.1533 268.834 60.3883 268.834 59.7008C268.834 59.0134 267.931 57.8191 266.829 57.046C264.996 55.7614 264.66 55.787 262.955 57.3359C261.928 58.2686 260.064 59.5614 258.813 60.2096C257.562 60.8569 254.244 61.3865 251.439 61.3865C247.853 61.3865 245.63 60.8678 243.946 59.6398C242.63 58.6779 240.924 56.5993 240.156 55.0193C239.387 53.4394 238.759 51.0799 238.759 49.7771V47.4077H270.657V42.7271C270.657 40.1525 270.189 36.4838 269.617 34.573C269.045 32.663 267.331 29.5879 265.808 27.7399C264.286 25.8919 261.37 23.6218 259.33 22.6946C257.189 21.7218 253.499 21.0007 250.607 20.9897C247.306 20.977 244.264 21.6288 241.7 22.8979ZM395.197 21.9051C393.768 22.3336 391.271 23.5944 389.647 24.7067C388.023 25.8199 385.798 28.0398 384.702 29.6398C383.606 31.2407 382.31 33.9421 381.822 35.6424C381.335 37.3436 380.936 41.4334 380.936 44.7319C380.936 48.0304 381.569 52.5897 382.344 54.8634C383.118 57.1372 385.041 60.3171 386.617 61.929C388.194 63.5418 390.719 65.501 392.231 66.2832C393.743 67.0645 397.459 67.9015 400.489 68.1421C403.52 68.3828 407.779 68.0984 409.955 67.5094C412.249 66.8877 415.57 64.9084 417.862 62.7951C420.345 60.5049 422.346 57.5866 423.248 54.9409C424.037 52.6243 424.682 48.0814 424.682 44.844C424.682 41.6066 424.2 37.3481 423.611 35.3798C423.021 33.4115 420.969 30.0173 419.051 27.8374C416.76 25.2346 414.1 23.3747 411.302 22.4211C408.958 21.6225 404.961 21.0043 402.419 21.0472C399.876 21.09 396.627 21.4766 395.197 21.9051ZM449.7 22.2515C448.172 22.9171 445.862 24.7213 444.567 26.2602L442.213 29.0591L441.64 25.4698C441.083 21.988 440.957 21.8805 437.431 21.8805H433.796V67.4648H441.838L442.146 53.1057C442.428 39.9838 442.64 38.4221 444.613 34.9796C445.802 32.9037 448.312 30.3455 450.205 29.2815C452.094 28.2194 454.917 27.3506 456.477 27.3506C459.113 27.3506 459.315 27.1236 459.315 24.1597C459.315 21.0736 459.203 20.9697 455.897 21.0043C454.018 21.0244 451.229 21.5851 449.7 22.2515ZM472.048 23.4759C469.413 24.8553 466.831 26.6595 466.311 27.4864C465.609 28.6005 465.781 29.6262 466.974 31.4477L468.584 33.9047L470.57 32.0385C471.662 31.0119 474.074 29.5377 475.932 28.7619C477.788 27.9851 480.954 27.3506 482.968 27.3506C485.703 27.3506 487.307 27.9842 489.313 29.8577C491.121 31.5462 492.194 33.6303 492.597 36.2395L493.197 40.1142H484.855C478.377 40.1142 475.511 40.5454 472.023 42.047C469.169 43.275 466.864 45.0592 465.701 46.9409C464.51 48.8691 463.872 51.4875 463.872 54.4459C463.872 57.6523 464.481 59.9014 465.941 62.0876C467.078 63.7916 469.437 65.903 471.181 66.7792C472.926 67.6562 476.314 68.3746 478.711 68.3746C481.108 68.3755 484.488 67.7838 486.222 67.0591C487.956 66.3343 490.38 64.7352 491.61 63.5044L493.846 61.268L494.125 64.138C494.383 66.7928 494.684 67.0299 498.139 67.2824L501.875 67.5559L501.156 63.1798C500.76 60.773 500.412 52.6079 500.382 45.0355C500.332 32.3147 500.171 31.0311 498.27 28.1693C497.138 26.4653 494.385 24.1478 492.153 23.0201C489.249 21.5532 486.492 20.9688 482.466 20.9688C478.097 20.9688 475.768 21.5295 472.048 23.4759ZM330.809 67.4648H339.012V21.8805H330.809V67.4648ZM256.489 28.6415C258.189 29.3526 260.263 30.9773 261.099 32.2536C261.935 33.53 262.841 36.2313 263.113 38.2562L263.606 41.9376H237.813L238.384 39.4304C238.698 38.051 239.656 35.4874 240.514 33.7324C241.395 31.9291 243.433 29.8486 245.201 28.9479C246.921 28.0708 249.469 27.3524 250.864 27.3524C252.258 27.3515 254.79 27.9313 256.489 28.6415ZM304.206 29.1977C305.865 30.2096 307.813 32.4505 308.535 34.1791C309.34 36.1064 309.846 40.4141 309.843 45.3272C309.841 51.6589 309.468 53.9445 308.061 56.2519C307.083 57.8574 305.054 59.8066 303.553 60.5824C302.052 61.3592 299.218 61.9946 297.256 61.9946C294.974 61.9946 292.781 61.2808 291.172 60.0154C289.788 58.9259 287.896 56.3622 286.967 54.3173C285.87 51.8995 285.272 48.4525 285.26 44.4629C285.248 40.8408 285.856 36.7865 286.744 34.5657C287.634 32.3421 289.405 30.0984 291.073 29.08C292.627 28.1328 295.538 27.357 297.543 27.357C299.596 27.357 302.508 28.1611 304.206 29.1977ZM410.193 29.4137C411.896 30.5488 414.059 33.0477 415 34.9677C416.086 37.1859 416.725 40.5053 416.752 44.0727C416.776 47.1606 416.304 51.1574 415.705 52.9553C415.105 54.7531 413.387 57.4007 411.886 58.8393C409.604 61.0264 408.219 61.5142 403.431 61.8187C398.258 62.1487 397.422 61.9454 394.768 59.7118C393.153 58.3525 391.422 56.4744 390.922 55.539C390.421 54.6036 389.602 51.6762 389.101 49.0332C388.472 45.7156 388.498 42.7426 389.186 39.4268C389.738 36.7683 391.238 33.3713 392.548 31.8133C393.849 30.2671 395.768 28.6561 396.81 28.234C397.854 27.8119 400.595 27.4399 402.902 27.408C405.812 27.3679 408.045 27.9824 410.193 29.4137ZM493.023 49.459C493.016 51.5905 492.497 54.3465 491.871 55.5855C491.244 56.8236 489.344 58.7727 487.648 59.916C485.49 61.3701 483.236 61.9946 480.142 61.9946C476.954 61.9946 475.218 61.4923 473.92 60.1941C472.93 59.204 471.859 57.3505 471.539 56.0742C471.219 54.7978 471.44 52.586 472.032 51.1583C472.622 49.7306 474.002 48.1279 475.097 47.5964C476.191 47.064 477.702 46.4267 478.454 46.1787C479.206 45.9307 482.794 45.6955 486.429 45.6563L493.037 45.5843L493.023 49.459Z" fill="#14B4A7"/>
<path fill-rule="evenodd" clip-rule="evenodd" d="M239.515 97.532C236.758 99.039 233.536 101.011 232.356 101.914L230.209 103.556L232.233 107.525C233.346 109.708 237.145 116.238 240.676 122.036C244.206 127.834 249.94 136.783 253.418 141.923C256.896 147.063 260.036 151.268 260.394 151.268C260.752 151.268 261.91 150.097 262.969 148.666C264.026 147.235 267.72 142.004 271.177 137.042C274.634 132.079 280.821 122.815 284.926 116.454C289.03 110.092 292.636 104.241 292.94 103.451C293.362 102.348 291.639 101.146 285.547 98.2905C281.179 96.2429 277.286 94.9146 276.895 95.3385C276.505 95.7633 272.959 102.162 269.015 109.558C265.071 116.954 261.631 123.005 261.37 123.005C261.109 123.005 258.537 118.266 255.655 112.473C252.772 106.68 249.392 100.321 248.143 98.3416C246.893 96.3623 245.569 94.7541 245.199 94.7678C244.83 94.7805 242.272 96.025 239.515 97.532ZM481.489 95.3586C478.983 95.5172 475.189 95.8782 473.059 96.1618L469.185 96.6787L469.191 119.186C469.193 131.566 469.609 143.183 470.114 145.003C470.858 147.681 471.571 148.418 473.868 148.877C475.428 149.189 483.215 149.444 491.173 149.444H505.641V136.681H498.076C493.408 136.681 490.093 136.262 489.418 135.587C488.817 134.985 488.324 133.539 488.324 132.373C488.324 130.937 489.078 129.967 490.662 129.364C491.948 128.876 495.024 128.476 497.498 128.476H501.995V115.625L488.78 116.168L488.48 113.017C488.27 110.804 488.661 109.515 489.794 108.686C490.74 107.995 493.974 107.507 497.612 107.507H503.818V94.7432L494.932 94.9073C490.045 94.9975 483.995 95.2008 481.489 95.3586ZM404.476 122.231V148.807L413.818 148.252C418.957 147.946 425.621 147.051 428.628 146.263C431.636 145.474 437.082 143.42 440.732 141.698C444.962 139.702 449.124 136.81 452.214 133.72C456.08 129.851 457.294 127.895 458.219 124.04C458.857 121.384 459.181 117.162 458.94 114.658C458.7 112.152 457.69 109.009 456.694 107.667C455.698 106.325 453.283 104.128 451.326 102.784C449.369 101.44 445.461 99.69 442.642 98.895C439.75 98.079 430.613 97.0652 421.68 96.5693C412.97 96.0852 405.536 95.6822 405.16 95.6722C404.784 95.6631 404.476 107.614 404.476 122.231ZM300.578 148.596L319.261 148.077L319.745 96.5665H300.578V148.596ZM335.78 99.5295C335.481 101.16 334.824 107.21 334.32 112.977C333.816 118.743 333.4 128.682 333.396 135.064C333.388 146.101 333.488 146.732 335.439 147.992C336.567 148.721 339.95 149.427 342.958 149.56L348.426 149.802L349.141 137.587C349.535 130.869 350.01 125.22 350.195 125.034C350.381 124.849 358.406 130.265 368.027 137.07C377.65 143.876 385.866 149.444 386.287 149.444C386.708 149.444 387.286 149.066 387.571 148.605C387.857 148.142 388.672 141.065 389.384 132.878C390.095 124.69 390.966 113.171 391.321 107.279L391.965 96.5665H374.401V107.909C374.401 114.147 374.037 119.475 373.593 119.75C373.149 120.025 367.108 116.291 360.167 111.453C353.228 106.615 345.408 101.286 342.791 99.6116C340.174 97.9368 337.649 96.5665 337.178 96.5665C336.709 96.5665 336.08 97.8994 335.78 99.5295ZM434.575 111.381C437.613 112.918 438.837 114.173 439.454 116.384C440.063 118.565 439.875 120.391 438.734 123.377C437.835 125.732 435.879 128.422 434.048 129.818C432.32 131.137 429.427 132.834 427.619 133.59C425.809 134.346 424.118 134.753 423.859 134.493C423.599 134.234 423.175 128.466 422.917 121.676L422.446 109.33H426.483C428.861 109.33 432.187 110.173 434.575 111.381Z" fill="url(#paint0_linear_44_108)"/>
<defs>
<linearGradient id="paint0_linear_44_108" x1="367.925" y1="94.7432" x2="367.925" y2="151.268" gradientUnits="userSpaceOnUse">
<stop stop-color="#14B4A7"/>
<stop offset="1" stop-color="#25CAAD"/>
</linearGradient>
</defs>
</svg>
