<svg width="180" height="60" viewBox="0 0 180 60" fill="none" xmlns="http://www.w3.org/2000/svg">
  <!-- Book Icon -->
  <g>
    <rect x="10" y="15" width="40" height="30" rx="2" fill="#08a4a7"/>
    <path d="M30 15V45" stroke="white" stroke-width="2" stroke-linecap="round"/>
    <path d="M17 24H26" stroke="white" stroke-width="2" stroke-linecap="round"/>
    <path d="M17 30H26" stroke="white" stroke-width="2" stroke-linecap="round"/>
    <path d="M17 36H26" stroke="white" stroke-width="2" stroke-linecap="round"/>
    <path d="M34 24H43" stroke="white" stroke-width="2" stroke-linecap="round"/>
    <path d="M34 30H43" stroke="white" stroke-width="2" stroke-linecap="round"/>
    <path d="M34 36H43" stroke="white" stroke-width="2" stroke-linecap="round"/>
  </g>
  
  <!-- Grace Text -->
  <path d="M73.864 40V23.6H89.464V27.232H78.136V30.032H88.344V33.664H78.136V40H73.864Z" fill="#08a4a7"/>
  <path d="M98.0273 40.288C96.6193 40.288 95.3553 40.016 94.2353 39.472C93.1153 38.928 92.2273 38.184 91.5713 37.24C90.9153 36.28 90.5713 35.184 90.5393 33.952H95.0273C95.0913 34.688 95.3713 35.28 95.8673 35.728C96.3633 36.16 97.0033 36.376 97.7873 36.376C98.5873 36.376 99.2193 36.2 99.6833 35.848C100.147 35.496 100.379 35.016 100.379 34.408C100.379 33.896 100.203 33.48 99.8513 33.16C99.5153 32.84 99.0913 32.584 98.5793 32.392C98.0833 32.2 97.3793 31.976 96.4673 31.72C95.1553 31.352 94.1073 30.984 93.3233 30.616C92.5393 30.248 91.8673 29.704 91.3073 28.984C90.7473 28.264 90.4673 27.32 90.4673 26.152C90.4673 24.36 91.0913 22.952 92.3393 21.928C93.5873 20.888 95.2273 20.368 97.2593 20.368C99.3233 20.368 100.971 20.888 102.203 21.928C103.435 22.952 104.091 24.368 104.171 26.176H99.6113C99.5633 25.536 99.3073 25.024 98.8433 24.64C98.3793 24.24 97.7793 24.04 97.0433 24.04C96.4033 24.04 95.8913 24.216 95.5073 24.568C95.1233 24.904 94.9313 25.376 94.9313 25.984C94.9313 26.64 95.2353 27.16 95.8433 27.544C96.4513 27.928 97.4033 28.32 98.6993 28.72C99.9953 29.136 101.019 29.536 101.771 29.92C102.539 30.304 103.203 30.84 103.763 31.528C104.323 32.216 104.603 33.112 104.603 34.216C104.603 35.256 104.339 36.2 103.811 37.048C103.283 37.896 102.523 38.568 101.531 39.064C100.539 39.88 99.3713 40.288 98.0273 40.288Z" fill="#08a4a7"/>
  <path d="M114.624 40.288C113.024 40.288 111.616 39.952 110.4 39.28C109.184 38.592 108.232 37.632 107.544 36.4C106.872 35.168 106.536 33.76 106.536 32.176C106.536 30.608 106.88 29.208 107.568 27.976C108.256 26.744 109.216 25.784 110.448 25.096C111.68 24.408 113.096 24.064 114.696 24.064C116.296 24.064 117.712 24.408 118.944 25.096C120.176 25.784 121.136 26.744 121.824 27.976C122.512 29.208 122.856 30.608 122.856 32.176C122.856 33.744 122.504 35.152 121.8 36.4C121.112 37.632 120.144 38.592 118.896 39.28C117.664 39.952 116.24 40.288 114.624 40.288ZM114.624 36.28C115.696 36.28 116.592 35.912 117.312 35.176C118.048 34.424 118.416 33.424 118.416 32.176C118.416 30.928 118.056 29.936 117.336 29.2C116.632 28.448 115.744 28.072 114.672 28.072C113.584 28.072 112.688 28.448 111.984 29.2C111.28 29.936 110.928 30.928 110.928 32.176C110.928 33.424 111.272 34.424 111.96 35.176C112.664 35.912 113.552 36.28 114.624 36.28Z" fill="#08a4a7"/>
  <path d="M138.91 40L134.51 33.592H133.222V40H128.95V23.6H136.79C138.23 23.6 139.47 23.856 140.51 24.368C141.566 24.88 142.358 25.584 142.886 26.48C143.414 27.376 143.678 28.384 143.678 29.504C143.678 30.752 143.318 31.848 142.598 32.792C141.894 33.736 140.846 34.384 139.454 34.736L144.27 40H138.91ZM133.222 30.416H136.358C137.158 30.416 137.758 30.232 138.158 29.864C138.558 29.496 138.758 28.968 138.758 28.28C138.758 27.624 138.558 27.112 138.158 26.744C137.758 26.376 137.158 26.192 136.358 26.192H133.222V30.416Z" fill="#08a4a7"/>
  <path d="M161.302 36.376V40H147.566V23.6H160.926V27.224H151.838V29.84H159.95V33.328H151.838V36.376H161.302Z" fill="#08a4a7"/>
</svg> 