<svg width="204" height="246" viewBox="0 0 204 246" fill="none" xmlns="http://www.w3.org/2000/svg">
<path fill-rule="evenodd" clip-rule="evenodd" d="M22.6017 0.537592C20.155 0.905078 16.7022 1.68446 14.9273 2.26878C13.1534 2.85311 9.76424 5.26528 7.39516 7.62869C4.20848 10.8089 2.68669 13.2228 1.54448 16.9099C0.105583 21.5514 0 28.5963 0 119.86C0 198.626 0.229489 218.852 1.17101 223.052C1.81498 225.926 3.28092 229.905 4.43012 231.893C5.57844 233.882 8.19271 236.74 10.2398 238.244C12.2869 239.748 16.0887 241.596 18.6882 242.351C21.6602 243.214 24.9629 243.542 27.5851 243.232C29.8791 242.961 33.0527 242.073 34.6382 241.259C36.2237 240.445 39.817 238.022 42.6223 235.873C45.4286 233.723 55.6378 224.271 65.3096 214.869C74.9822 205.466 84.325 196.892 86.0719 195.815C87.8188 194.738 91.4715 193.446 94.1887 192.945C97.7078 192.296 100.472 192.311 103.801 193.001C106.371 193.534 110.18 195.097 112.264 196.476C114.35 197.854 121.953 204.398 129.16 211.017C136.368 217.637 145.398 225.804 149.229 229.167C153.059 232.531 158.815 237.15 162.019 239.431C165.224 241.712 169.682 244.204 171.926 244.967C174.63 245.886 177.556 246.194 180.596 245.882C183.12 245.621 187.163 244.408 189.58 243.187C191.996 241.964 195.203 239.481 196.705 237.668C198.207 235.856 200.002 232.48 200.694 230.167C201.385 227.853 202.381 220.995 202.904 214.928C203.543 207.543 203.763 173.659 203.57 112.458C203.304 27.7803 203.169 20.6849 201.74 16.4614C200.693 13.3657 198.801 10.5076 195.854 7.56599C192.901 4.61826 190.048 2.7399 186.94 1.69666C182.726 0.282443 176.323 0.150948 104.71 0.015971C61.9972 -0.0650153 25.0485 0.170105 22.6017 0.537592ZM63.2197 45.6313C64.6516 46.7878 68.8619 58.7798 80.4018 94.5671C88.8083 120.639 96.4487 143.462 97.3806 145.284C98.6083 147.686 99.6319 148.597 101.102 148.597C102.218 148.597 103.817 147.84 104.655 146.916C105.494 145.992 113.533 122.776 122.52 95.3247L137.775 48.7268C138.442 46.688 140.178 45.1818 142.29 44.8075C144.177 44.4731 149.55 44.1762 154.23 44.1492C158.909 44.1213 162.737 44.2868 162.737 44.5158C162.737 44.7448 156.496 64.4367 148.867 88.2745C141.238 112.112 133.389 136.71 131.424 142.937C129.459 149.163 126.664 156.31 125.213 158.818C123.763 161.326 120.593 164.942 118.17 166.854C115.747 168.765 112.119 170.773 110.11 171.315C108.099 171.858 103.511 172.126 99.9111 171.913C95.166 171.63 92.1669 170.909 89.0038 169.29C86.6042 168.063 83.1923 165.606 81.4227 163.832C78.9568 161.361 77.2919 158.134 74.3016 150.03C72.1559 144.213 65.4893 124.171 59.4886 105.492C53.4869 86.8124 46.7706 65.7211 44.563 58.6222C42.3562 51.5233 40.7751 45.3518 41.0499 44.9068C41.3257 44.4627 46.0001 44.0987 51.4372 44.0987C59.5732 44.0987 61.6595 44.3704 63.2197 45.6313Z" fill="#1EC0AA"/>
</svg>
