<?xml version="1.0" encoding="UTF-8"?>
<svg xmlns="http://www.w3.org/2000/svg" width="600" height="200" viewBox="0 0 600 200" fill="none">
  <!-- Stars pattern -->
  <g id="stars">
    <path d="M270 30L272.5 35L278 37.5L272.5 40L270 45L267.5 40L262 37.5L267.5 35L270 30Z" fill="white"/>
    <path d="M340 30L342.5 35L348 37.5L342.5 40L340 45L337.5 40L332 37.5L337.5 35L340 30Z" fill="white"/>
    <path d="M305 14L307.5 19L313 21.5L307.5 24L305 29L302.5 24L297 21.5L302.5 19L305 14Z" fill="white"/>
    <path d="M270 90L272.5 95L278 97.5L272.5 100L270 105L267.5 100L262 97.5L267.5 95L270 90Z" fill="white"/>
    <path d="M340 90L342.5 95L348 97.5L342.5 100L340 105L337.5 100L332 97.5L337.5 95L340 90Z" fill="white"/>
    <path d="M375 37.5L377.5 42.5L383 45L377.5 47.5L375 52.5L372.5 47.5L367 45L372.5 42.5L375 37.5Z" fill="white"/>
    <path d="M235 37.5L237.5 42.5L243 45L237.5 47.5L235 52.5L232.5 47.5L227 45L232.5 42.5L235 37.5Z" fill="white"/>
    <path d="M375 67.5L377.5 72.5L383 75L377.5 77.5L375 82.5L372.5 77.5L367 75L372.5 72.5L375 67.5Z" fill="white"/>
    <path d="M235 67.5L237.5 72.5L243 75L237.5 77.5L235 82.5L232.5 77.5L227 75L232.5 72.5L235 67.5Z" fill="white"/>
  </g>
  
  <!-- V Logo -->
  <rect x="266" y="37.5" width="68" height="68" rx="10" fill="#4DFED1"/>
  <path d="M320 60L300 112L285 82" stroke="#00111E" stroke-width="14" stroke-linecap="round" stroke-linejoin="round"/>
  
  <!-- Text "editora" -->
  <text x="305" y="150" fill="white" font-family="Arial, sans-serif" font-size="36" text-anchor="middle" font-weight="400">editora</text>
  
  <!-- Text "VINDE EUROPA" -->
  <text x="160" y="180" fill="#4DFED1" font-family="Arial, sans-serif" font-size="48" font-weight="700">VINDE</text>
  <text x="360" y="180" fill="white" font-family="Arial, sans-serif" font-size="48" font-weight="700">EUROPA</text>
</svg>
